<svg xmlns="http://www.w3.org/2000/svg" viewBox="0 0 32 32">
  <rect width="32" height="32" rx="7" fill="#16191c"/>
  <defs><clipPath id="b"><circle cx="16" cy="16" r="12"/></clipPath></defs>
  <circle cx="16" cy="16" r="12" fill="#ffffff"/>
  <g clip-path="url(#b)">
    <polygon points="16.00,9.10 12.58,6.61 13.88,2.59 18.12,2.59 19.42,6.61" fill="#16191c"/><polygon points="22.56,13.87 23.87,9.84 28.10,9.84 29.41,13.87 25.99,16.36" fill="#16191c"/><polygon points="20.06,21.58 24.29,21.58 25.60,25.61 22.17,28.09 18.75,25.61" fill="#16191c"/><polygon points="11.94,21.58 13.25,25.61 9.83,28.09 6.40,25.61 7.71,21.58" fill="#16191c"/><polygon points="9.44,13.87 6.01,16.36 2.59,13.87 3.90,9.84 8.13,9.84" fill="#16191c"/>
    <g stroke="#16191c" stroke-width="1.5" stroke-linecap="round"><line x1="16.00" y1="11.00" x2="16.00" y2="5.50"/><line x1="20.76" y1="14.45" x2="25.99" y2="12.76"/><line x1="18.94" y1="20.05" x2="22.17" y2="24.49"/><line x1="13.06" y1="20.05" x2="9.83" y2="24.49"/><line x1="11.24" y1="14.45" x2="6.01" y2="12.76"/></g>
    <polygon points="16.00,11.00 20.76,14.45 18.94,20.05 13.06,20.05 11.24,14.45" fill="#16191c"/>
  </g>
</svg>